<svg xmlns="http://www.w3.org/2000/svg" viewBox="0 0 600 820">
  <rect width="600" height="820" fill="#0d1326"/>
  <g fill="#1b2745">
    <rect x="40" y="220" width="120" height="600"/>
    <rect x="190" y="140" width="150" height="680"/>
    <rect x="370" y="280" width="100" height="540"/>
    <rect x="490" y="190" width="90" height="630"/>
  </g>
  <g fill="#ffd98a" opacity="0.85">
    <rect x="60" y="250" width="24" height="30"/><rect x="110" y="320" width="24" height="30"/>
    <rect x="210" y="180" width="26" height="34"/><rect x="270" y="260" width="26" height="34"/>
    <rect x="210" y="380" width="26" height="34"/><rect x="300" y="450" width="26" height="34"/>
    <rect x="390" y="330" width="22" height="28"/><rect x="430" y="430" width="22" height="28"/>
    <rect x="510" y="240" width="24" height="30"/><rect x="510" y="380" width="24" height="30"/>
  </g>
  <circle cx="470" cy="110" r="52" fill="#f4f1e0" opacity="0.9"/>
  <g fill="#ffffff" opacity="0.7">
    <circle cx="90" cy="80" r="3"/><circle cx="180" cy="50" r="2"/><circle cx="300" cy="90" r="2.5"/>
    <circle cx="360" cy="40" r="2"/><circle cx="560" cy="70" r="3"/>
  </g>
  <text x="300" y="790" font-family="serif" font-size="22" fill="#ffffff" opacity="0.35" text-anchor="middle">見本 / sample</text>
</svg>
